<svg width="134" height="38" viewBox="0 0 134 38" fill="none" xmlns="http://www.w3.org/2000/svg">
<g clip-path="url(#clip0_176_2)">
<path d="M96.5347 32.5204V16.3704H99.1594V19.1672L99.0687 22.3136L99.288 25.46V32.5128H96.5347V32.5204ZM103.07 28.3708C102.117 28.3708 101.24 28.1504 100.453 27.702C99.6663 27.2612 99.0384 26.5924 98.577 25.6956C98.1156 24.7988 97.8811 23.6664 97.8811 22.2908C97.8811 20.9 98.108 19.76 98.5543 18.8784C99.0006 17.9968 99.6209 17.328 100.4 16.8948C101.179 16.4616 102.072 16.2412 103.07 16.2412C104.235 16.2412 105.256 16.492 106.149 16.9936C107.041 17.4952 107.745 18.202 108.267 19.0988C108.789 20.0032 109.053 21.0672 109.053 22.2908C109.053 23.522 108.789 24.586 108.267 25.498C107.745 26.41 107.034 27.1168 106.149 27.6184C105.264 28.12 104.235 28.3708 103.07 28.3708ZM102.76 25.9996C103.426 25.9996 104.016 25.8552 104.538 25.5588C105.06 25.2624 105.476 24.8368 105.786 24.2744C106.096 23.712 106.247 23.0508 106.247 22.2984C106.247 21.5308 106.088 20.8696 105.786 20.3148C105.476 19.76 105.06 19.3344 104.538 19.038C104.016 18.7416 103.426 18.5972 102.76 18.5972C102.094 18.5972 101.504 18.7416 100.975 19.038C100.445 19.3344 100.029 19.76 99.7192 20.3148C99.4091 20.8696 99.2578 21.5308 99.2578 22.2984C99.2578 23.0508 99.4166 23.712 99.7192 24.2744C100.029 24.8368 100.445 25.2624 100.975 25.5588C101.504 25.8476 102.102 25.9996 102.76 25.9996Z" fill="#666666"/>
<path d="M113.758 28.3708C112.873 28.3708 112.102 28.2188 111.444 27.9148C110.786 27.6108 110.271 27.1928 109.908 26.6532C109.545 26.1136 109.371 25.5056 109.371 24.8216C109.371 24.1528 109.53 23.56 109.848 23.028C110.165 22.496 110.68 22.0704 111.406 21.7664C112.124 21.4548 113.085 21.3028 114.273 21.3028H117.692V23.142H114.469C113.524 23.142 112.896 23.294 112.571 23.598C112.246 23.902 112.087 24.2744 112.087 24.7152C112.087 25.2168 112.283 25.6196 112.684 25.916C113.085 26.2124 113.63 26.3568 114.341 26.3568C115.014 26.3568 115.627 26.2048 116.164 25.8932C116.701 25.5816 117.087 25.1256 117.321 24.5176L117.783 26.182C117.518 26.8736 117.041 27.4208 116.36 27.8008C115.665 28.1808 114.802 28.3708 113.758 28.3708ZM117.465 28.2188V25.8248L117.314 25.3156V21.1204C117.314 20.3072 117.071 19.6764 116.587 19.2204C116.103 18.772 115.362 18.544 114.379 18.544C113.713 18.544 113.062 18.6504 112.427 18.8556C111.784 19.0608 111.247 19.3496 110.801 19.722L109.719 17.7004C110.354 17.214 111.103 16.8492 111.981 16.606C112.858 16.3628 113.766 16.2412 114.704 16.2412C116.413 16.2412 117.73 16.6516 118.668 17.4724C119.605 18.2932 120.067 19.5624 120.067 21.28V28.2188H117.465Z" fill="#666666"/>
<path d="M127.291 27.6868C126.171 27.6868 125.158 27.4436 124.257 26.9648C123.357 26.486 122.639 25.8172 122.117 24.9584C121.595 24.0996 121.33 23.0964 121.33 21.9412C121.33 20.8012 121.587 19.8056 122.117 18.9468C122.639 18.088 123.35 17.4268 124.257 16.948C125.165 16.4768 126.171 16.2412 127.291 16.2412C128.289 16.2412 129.189 16.4388 129.984 16.8416C130.778 17.2444 131.413 17.86 131.897 18.7036C132.374 19.5472 132.616 20.6264 132.616 21.9412C132.616 23.256 132.374 24.3428 131.897 25.194C131.421 26.0452 130.785 26.676 129.984 27.0788C129.182 27.4816 128.289 27.6868 127.291 27.6868ZM127.639 32.6724C126.549 32.6724 125.483 32.528 124.447 32.2392C123.41 31.9504 122.555 31.5324 121.897 30.9852L123.13 28.9028C123.645 29.3284 124.295 29.678 125.082 29.9364C125.869 30.1948 126.67 30.324 127.48 30.324C128.773 30.324 129.726 30.0276 130.324 29.4272C130.929 28.8268 131.232 27.93 131.232 26.7292V24.624L131.451 21.9412L131.36 19.2584V16.378H133.985V26.4252C133.985 28.5684 133.44 30.1492 132.351 31.16C131.277 32.1708 129.704 32.6724 127.639 32.6724ZM127.707 25.3308C128.395 25.3308 129.015 25.1864 129.56 24.8976C130.105 24.6088 130.528 24.2136 130.831 23.6968C131.133 23.1876 131.285 22.6024 131.285 21.9336C131.285 21.2648 131.133 20.6796 130.831 20.1704C130.528 19.6612 130.105 19.266 129.56 18.9924C129.015 18.7188 128.395 18.582 127.707 18.582C127.018 18.582 126.391 18.7188 125.838 18.9924C125.286 19.266 124.863 19.6612 124.56 20.1704C124.257 20.6796 124.106 21.2648 124.106 21.9336C124.106 22.6024 124.257 23.1876 124.56 23.6968C124.863 24.206 125.286 24.6088 125.838 24.8976C126.391 25.1864 127.018 25.3308 127.707 25.3308Z" fill="#666666"/>
<path d="M37.8211 38H9.12244C4.08467 38 0 33.896 0 28.8344V0H28.6986C33.7364 0 37.8211 4.104 37.8211 9.1656V38Z" fill="#009693"/>
<path d="M12.9346 6.54361C12.9346 7.33401 12.9346 8.09401 12.9346 8.86921C13.396 8.71721 13.8272 8.55761 14.2659 8.42841C15.2038 8.14721 16.1494 8.07121 17.1252 8.13961C18.8271 8.26881 20.3399 8.85401 21.6864 9.89521C22.8588 10.8072 23.7211 11.9624 24.3036 13.3304C24.349 13.4444 24.47 13.5508 24.5835 13.604C27.3066 14.8428 29.0539 16.9024 29.5985 19.8664C30.1885 23.0508 29.1825 25.7336 26.7847 27.8692C25.5819 28.9408 24.1447 29.5792 22.5336 29.8072C20.9829 30.0276 19.5003 29.83 18.0631 29.2296C17.9799 29.1916 17.8891 29.1688 17.7832 29.1308C17.7832 29.83 17.7757 30.514 17.7832 31.1904C17.7832 31.3804 17.7454 31.464 17.5336 31.464C16.051 31.4564 14.5609 31.4564 13.0783 31.4564C13.0405 31.4564 13.0027 31.4488 12.9119 31.4412C12.9119 31.1068 12.9119 30.7648 12.9119 30.4228C12.9119 28.4544 12.9119 26.486 12.9195 24.51C12.9195 24.3124 12.8589 24.2136 12.685 24.1148C10.3401 22.8608 8.85747 20.938 8.27503 18.3388C8.154 17.8068 8.07836 17.2444 8.07079 16.6972C8.05566 13.414 8.06323 10.1384 8.05566 6.85521C8.05566 6.60441 8.11618 6.52841 8.37336 6.52841C9.87864 6.55121 11.3839 6.54361 12.9346 6.54361ZM17.7227 29.032C17.7227 28.1276 17.7227 27.246 17.7227 26.3036C18.517 26.8736 19.349 27.2384 20.2643 27.398C21.172 27.5576 22.0721 27.5196 22.9647 27.2688C23.8649 27.0104 24.6591 26.5696 25.355 25.954C26.0585 25.3308 26.5729 24.5784 26.9284 23.712C28.1084 20.824 26.7847 17.784 24.9239 16.606C24.9239 16.7124 24.9239 16.8036 24.9239 16.8948C24.9239 18.3768 24.9239 19.8588 24.9239 21.3408C24.9239 21.6068 24.9087 21.8728 24.8633 22.1388C24.5154 24.1376 22.3974 25.4752 20.4458 24.9356C18.7968 24.4796 17.7227 23.066 17.7227 21.356C17.7227 19.76 17.7227 18.164 17.7227 16.5604C17.7227 15.922 17.2235 15.3672 16.5654 15.3444C15.9603 15.3216 15.3854 15.7168 15.3324 16.3324C15.2644 17.0544 15.2795 17.7764 15.2795 18.506C15.2719 20.6948 15.2795 22.8912 15.2795 25.08C15.2795 25.9692 15.2795 26.8584 15.2795 27.7476C15.2795 28.1732 15.2795 28.5988 15.2795 29.0396C16.104 29.032 16.8907 29.032 17.7227 29.032ZM10.4611 8.96041C10.4611 9.05161 10.4611 9.11241 10.4611 9.18081C10.4611 11.7572 10.4611 14.326 10.4611 16.9024C10.4611 17.1304 10.4913 17.3584 10.5292 17.5864C10.7258 18.6884 11.1721 19.6688 11.8983 20.52C12.1857 20.8544 12.5185 21.1356 12.8362 21.4472C12.8589 21.432 12.8816 21.4092 12.9043 21.394C12.9043 21.2952 12.9043 21.1888 12.9043 21.09C12.9043 19.6004 12.9043 18.1032 12.9043 16.6136C12.9043 16.454 12.8892 16.2868 12.9119 16.1272C13.1766 14.2424 14.7878 12.9504 16.52 12.9732C18.4791 12.996 20.0903 14.554 20.1055 16.5984C20.1206 18.2248 20.1055 19.8512 20.1055 21.4776C20.1055 22.1844 20.8392 22.8152 21.5351 22.6404C22.1554 22.4884 22.5487 22.0248 22.5487 21.3484C22.5563 19.7524 22.5563 18.1564 22.5487 16.5604C22.5487 16.2944 22.526 16.0284 22.4882 15.7624C22.2688 14.364 21.6561 13.1784 20.6425 12.1828C18.9784 10.5488 16.225 10.0396 14.107 11.02C13.6986 11.21 13.3128 11.438 12.8892 11.666C12.8892 10.7616 12.8892 9.87241 12.8892 8.98321C12.0874 8.96041 11.2931 8.96041 10.4611 8.96041Z" fill="#FFF800"/>
<path d="M56.4742 16.1728C57.5635 16.1728 58.5468 16.3932 59.4243 16.834C60.3017 17.2748 60.9976 17.9588 61.5044 18.8784C62.0112 19.798 62.2684 20.9836 62.2684 22.4428V30.5064H57.3517V23.2484C57.3517 22.2452 57.1475 21.508 56.7466 21.052C56.3381 20.596 55.7783 20.3604 55.0522 20.3604C54.5378 20.3604 54.0613 20.4744 53.6301 20.71C53.1989 20.9456 52.8661 21.3028 52.6241 21.7892C52.382 22.2756 52.261 22.9064 52.261 23.6892V30.4988H47.3442V11.2024H52.261V20.406L51.1263 19.2356C51.6634 18.2096 52.3971 17.442 53.3275 16.9328C54.2579 16.4236 55.3018 16.1728 56.4742 16.1728Z" fill="#666666"/>
<path d="M71.3305 30.7344C69.6739 30.7344 68.2291 30.4152 66.9962 29.7844C65.7632 29.1536 64.8025 28.2872 64.1218 27.1852C63.441 26.0832 63.1006 24.8292 63.1006 23.4308C63.1006 22.0324 63.4334 20.7708 64.0991 19.6764C64.7647 18.582 65.68 17.7156 66.8524 17.1C68.0249 16.4844 69.3486 16.1804 70.8161 16.1804C72.1928 16.1804 73.456 16.4616 74.5982 17.024C75.7404 17.5864 76.6405 18.4148 77.3137 19.5092C77.987 20.6036 78.3198 21.926 78.3198 23.4916C78.3198 23.6664 78.3122 23.864 78.2971 24.092C78.282 24.32 78.2593 24.5252 78.2441 24.7152H67.1399V22.116H75.6269L73.7661 22.8456C73.7813 22.2072 73.6678 21.6524 73.4182 21.1812C73.1686 20.71 72.8206 20.3528 72.3819 20.0868C71.9432 19.8284 71.4288 19.6992 70.8388 19.6992C70.2488 19.6992 69.742 19.8284 69.2957 20.0868C68.857 20.3452 68.5166 20.7176 68.2745 21.1888C68.0325 21.6676 67.9114 22.2224 67.9114 22.8684V23.6208C67.9114 24.3124 68.0551 24.9128 68.3426 25.4144C68.63 25.916 69.0385 26.3036 69.5756 26.5696C70.1126 26.8356 70.748 26.9724 71.4893 26.9724C72.1776 26.9724 72.7676 26.8736 73.2593 26.676C73.751 26.4784 74.2351 26.1668 74.7192 25.7564L77.3062 28.462C76.633 29.2068 75.8085 29.7768 74.8251 30.1644C73.8418 30.5368 72.6769 30.7344 71.3305 30.7344Z" fill="#666666"/>
<path d="M79.0459 35.5452V16.4008H83.7281V18.7948L83.7055 23.4536L83.9626 28.1352V35.5452H79.0459ZM87.8733 30.7344C86.6858 30.7344 85.6646 30.4684 84.8174 29.944C83.9702 29.412 83.3272 28.614 82.8885 27.55C82.4498 26.486 82.2304 25.118 82.2304 23.4536C82.2304 21.774 82.4347 20.3984 82.8507 19.3344C83.2667 18.2704 83.887 17.4724 84.7266 16.9556C85.5662 16.4388 86.6101 16.1728 87.8733 16.1728C89.1517 16.1728 90.309 16.4692 91.3529 17.0696C92.3967 17.67 93.2212 18.506 93.8415 19.5928C94.4542 20.6796 94.7568 21.964 94.7568 23.4536C94.7568 24.9432 94.4466 26.2352 93.8415 27.3296C93.2288 28.424 92.3967 29.26 91.3529 29.8528C90.309 30.438 89.1517 30.7344 87.8733 30.7344ZM86.837 26.8052C87.3892 26.8052 87.8885 26.676 88.3272 26.4176C88.7659 26.1592 89.1214 25.7792 89.3862 25.27C89.6509 24.7684 89.7871 24.1604 89.7871 23.4536C89.7871 22.7468 89.6509 22.1388 89.3862 21.6296C89.1214 21.128 88.7659 20.748 88.3272 20.482C87.8885 20.2236 87.3892 20.0944 86.837 20.0944C86.2849 20.0944 85.7856 20.2236 85.3469 20.482C84.9082 20.7404 84.5526 21.1204 84.2879 21.6296C84.0231 22.1312 83.887 22.7392 83.887 23.4536C83.887 24.168 84.0231 24.7684 84.2879 25.27C84.5526 25.7716 84.9082 26.1516 85.3469 26.4176C85.7932 26.676 86.2849 26.8052 86.837 26.8052Z" fill="#666666"/>
</g>
<defs>
<clipPath id="clip0_176_2">
<rect width="134" height="38" fill="white"/>
</clipPath>
</defs>
</svg>
